# AST/ASF file generated using VICON BodyLanguage
# -----------------------------------------------
:version 1.10
:name VICON
:units
  mass 1.0
  length 0.45
  angle deg
:documentation
   .ast/.asf automatically generated from VICON data using
   VICON BodyBuilder and BodyLanguage model FoxedUp or BRILLIANT.MOD
:root
   order TX TY TZ RX RY RZ
   axis XYZ
   position 0 0 0  
   orientation 0 0 0 
:bonedata
  begin
     id 1 
     name lhipjoint
     direction 0.734343 -0.627749 0.258209 
     length 2.5437 
     axis 0 0 0  XYZ
  end
  begin
     id 2 
     name lfemur
     direction 0.34202 -0.939693 0  
     length 6.7391  
     axis 0 0 20  XYZ
    dof rx ry rz
    limits (-160.0 20.0)
           (-70.0 70.0)
           (-60.0 70.0)
  end
  begin
     id 3 
     name ltibia
     direction 0.34202 -0.939693 0   
     length 7.21536   
     axis 0 0 20   XYZ
    dof rx
    limits (-10.0 170.0)
  end
  begin
     id 4 
     name lfoot
     direction 0.0489572 -0.134509 0.989702   
     length 1.61313   
     axis -90 7.62852e-016 20   XYZ
    dof rx rz
    limits (-45.0 90.0)
           (-70.0 20.0)
  end
  begin
     id 5 
     name ltoes
     direction 1.53451e-011 -4.21692e-011 1   
     length 0.823104   
     axis -90 7.62852e-016 20   XYZ
    dof rx
    limits (-90.0 20.0)
  end
  begin
     id 6 
     name rhipjoint
     direction -0.746398 -0.615468 0.253157   
     length 2.59446  
     axis 0 0 0  XYZ 
  end
  begin
     id 7 
     name rfemur
     direction -0.34202 -0.939693 0   
     length 6.7075   
     axis 0 0 -20   XYZ
    dof rx ry rz
    limits (-160.0 20.0)
           (-70.0 70.0)
           (-70.0 60.0)
  end
  begin
     id 8 
     name rtibia
     direction -0.34202 -0.939693 0   
     length 7.27262   
     axis 0 0 -20   XYZ
    dof rx
    limits (-10.0 170.0)
 end
 begin
     id 9 
     name rfoot
     direction -0.0455203 -0.125066 0.991104   
     length 1.91095  
     axis -90 -7.62852e-016 -20   XYZ
    dof rx rz
    limits (-45.0 90.0)
           (-20.0 70.0)
  end
  begin
     id 10 
     name rtoes
     direction -1.53601e-011 -4.21913e-011 1   
     length 0.969037   
     axis -90 -7.62852e-016 -20   XYZ
    dof rx
    limits (-90.0 20.0)
  end
  begin
     id 11 
     name lowerback
     direction 0.0181546 0.999122 -0.0377542   
     length 1.99916   
     axis 0 0 0   XYZ
    dof rx ry rz
    limits (-20.0 45.0)
           (-30.0 30.0)
           (-30.0 30.0)
  end
  begin
     id 12 
     name upperback
     direction 0.0203486 0.99589 0.0882534   
     length 1.951   
     axis 0 0 0   XYZ
    dof rx ry rz
    limits (-20.0 45.0)
           (-30.0 30.0)
           (-30.0 30.0)
  end
  begin
     id 13 
     name thorax
     direction 0.0131685 0.994241 0.106355   
     length 1.97461   
     axis 0 0 0   XYZ
    dof rx ry rz
    limits (-20.0 45.0)
           (-30.0 30.0)
           (-30.0 30.0)
  end
  begin
     id 14 
     name lowerneck
     direction -0.0281395 0.999325 0.023617   
     length 1.7959   
     axis 0 0 0   XYZ
    dof rx ry rz
    limits (-20.0 45.0)
           (-30.0 30.0)
           (-30.0 30.0)
  end
  begin
     id 15 
     name upperneck
     direction 0.0288721 0.991984 -0.123019   
     length 1.79917   
     axis 0 0 0   XYZ
    dof rx ry rz
    limits (-20.0 45.0)
           (-30.0 30.0)
           (-30.0 30.0)
  end
  begin
     id 16
     name head
     direction 0.0133797 0.998944 -0.0439492  
     length 1.80902  
     axis 0 0 0   XYZ
    dof rx ry rz
    limits (-20.0 45.0)
           (-30.0 30.0)
           (-30.0 30.0)
  end
  begin
     id 17 
     name lclavicle
     direction 0.919195 0.377107 0.113449  
     length 3.17815  
     axis 0 0 0   XYZ
    dof ry rz
    limits (-20.0 10.0)
           (0.0 20.0)
  end
  begin
     id 18 
     name lhumerus
     direction 1 -4.48959e-011 2.13129e-027   
     length 4.84137   
     axis 180 -30 -90   XYZ
    dof rx ry rz
    limits (-60.0 90.0)
           (-90.0 90.0)
           (-90.0 90.0)
  end
  begin
     id 19
     name lradius
     direction 1 -4.48957e-011 -6.30627e-028   
     length 3.2452   
     axis 180 -30 -90   XYZ
    dof rx
    limits (-10.0 170.0)
  end
  begin
     id 20
     name lwrist
     direction 1 -4.4901e-011 9.13299e-027   
     length 1.6226   
     axis -6.84618e-015 90 90   XYZ
    dof ry
    limits (-180.0 0.0)
 end
  begin
     id 21 
     name lhand
     direction 1 -4.48816e-011 1.82293e-026   
     length 0.521221   
     axis -1.16502e-014 90 90   XYZ
    dof rx rz
    limits (-90.0 90.0)
           (-45.0 45.0)
  end
  begin
     id 22 
     name lfingers
     direction 1 -4.49108e-011 3.65687e-026   
     length 0.420221   
     axis -2.33008e-014 90 90   XYZ
    dof rx
    limits (0.0 90.0)
  end
  begin
     id 23
     name lthumb
     direction 0.707107 -6.34943e-011 0.707107   
     length 0.603356   
     axis -90 45 5.69224e-014   XYZ
    dof rx rz
    limits (-45.0 45.0)
           (-45.0 45.0)
  end
  begin
     id 24 
     name rclavicle
     direction -0.90847 0.38596 0.160368   
     length 3.12973  
     axis 0 0 0   XYZ 
    dof ry rz
    limits (-10.0 20.0)
           (-20.0 0.0)
  end
  begin
     id 25 
     name rhumerus
     direction -1 -4.48974e-011 4.47268e-028  
     length 4.72284   
     axis 180 30 90   XYZ
    dof rx ry rz
    limits (-90.0 60.0)
           (-90.0 90.0)
           (-90.0 90.0)
  end
  begin
     id 26 
     name rradius
     direction -1 -4.48969e-011 3.43203e-027   
     length 3.23459   
     axis 180 30 90   XYZ
    dof rx
    limits (-10.0 170.0)
  end
  begin
     id 27 
     name rwrist
     direction -1 -4.48969e-011 9.12911e-027   
     length 1.6173   
     axis -6.84618e-015 -90 -90   XYZ
    dof ry
    limits (-180.0 0.0)
  end
  begin
     id 28
     name rhand
     direction -1 -4.49194e-011 1.83006e-026   
     length 0.307416   
     axis -1.16502e-014 -90 -90   XYZ
    dof rx rz
    limits (-90.0 90.0)
           (-45.0 45.0)
  end
  begin
     id 29
     name rfingers
     direction -1 -4.48423e-011 3.63103e-026   
     length 0.247847   
     axis -2.33008e-014 -90 -90   XYZ
    dof rx
    limits (0.0 90.0)
  end
  begin
     id 30
     name rthumb
     direction -0.707107 -6.34802e-011 0.707107   
     length 0.35586   
     axis -90 -45 -5.69224e-014   XYZ
    dof rx rz
    limits (-45.0 45.0)
           (-45.0 45.0)
  end
:hierarchy
  begin
    root lhipjoint rhipjoint lowerback
    lhipjoint lfemur
    lfemur ltibia
    ltibia lfoot
    lfoot ltoes
    rhipjoint rfemur
    rfemur rtibia
    rtibia rfoot
    rfoot rtoes
    lowerback upperback
    upperback thorax
    thorax lowerneck lclavicle rclavicle
    lowerneck upperneck
    upperneck head
    lclavicle lhumerus
    lhumerus lradius
    lradius lwrist
    lwrist lhand lthumb
    lhand lfingers
    rclavicle rhumerus
    rhumerus rradius
    rradius rwrist
    rwrist rhand rthumb
    rhand rfingers
  end

#!OML:ASF H:\Terrain\Patient Classification 1\Animal1\Tuesday\Animal1.ASF
:FULLY-SPECIFIED
:DEGREES
1
root 26.9451 16.1039 -30.2918 14.6271 -33.0854 1.74748
lowerback 4.26306 -0.382117 -0.881504
upperback -2.00502 -0.602759 -0.837945
thorax -4.46168 -0.287786 -0.322315
lowerneck 0.0455753 -1.38095 -5.83129
upperneck -6.42631 -1.66518 5.96261
head -1.95942 -0.838082 2.98871
rclavicle -8.45829e-014 1.42131e-014
rhumerus -31.6149 19.9918 -92.8211
rradius 30.3579
rwrist -9.3101
rhand -21.8796 21.4134
rfingers 7.12502
rthumb 4.52502 -8.51825
lclavicle -8.45829e-014 1.42131e-014
lhumerus -35.3685 -9.57797 87.2748
lradius 45.5962
lwrist -23.1871
lhand 0.468152 41.1454
lfingers 7.12502
lthumb 26.0387 69.381
rfemur -30.304 31.9554 10.1758
rtibia 28.6625
rfoot -54.8624 -36.9168
rtoes 53.7171
lfemur -26.8471 -46.5943 -5.43596
ltibia 21.2059
lfoot -56.4293 38.6139
ltoes 50.7861
2
root 26.9446 16.1063 -30.2882 14.5876 -33.1623 1.82444
lowerback 4.25781 -0.327601 -0.954215
upperback -1.89031 -0.534973 -0.895906
thorax -4.33946 -0.253353 -0.347075
lowerneck -0.00332238 -1.45137 -5.72685
upperneck -6.44416 -1.75834 5.90023
head -1.95069 -0.885249 2.94813
rclavicle 4.34344e-014 2.18663e-015
rhumerus -31.44 19.7177 -92.7115
rradius 30.3227
rwrist -9.13368
rhand -21.3996 21.7632
rfingers 7.12502
rthumb 4.98849 -8.15805
lclavicle 4.34344e-014 2.18663e-015
lhumerus -35.1914 -9.57574 87.1357
lradius 45.5725
lwrist -23.2321
lhand 1.07267 41.6932
lfingers 7.12502
lthumb 26.6174 69.8423
rfemur -30.4091 31.8121 10.1409
rtibia 28.8844
rfoot -54.0829 -37.7115
rtoes 52.9582
lfemur -26.6086 -46.5372 -5.5983
ltibia 20.8879
lfoot -56.2643 38.8358
ltoes 50.8345
3
root 26.9429 16.1116 -30.2843 14.6037 -33.2513 1.84926
lowerback 4.21053 -0.241761 -0.99889
upperback -1.71307 -0.421222 -0.941822
thorax -4.12878 -0.197032 -0.378734
lowerneck -0.6328 -1.52806 -5.71466
upperneck -6.0361 -1.84036 5.95154
head -1.6986 -0.919683 2.94606
rclavicle -9.46215e-014 1.2921e-014
rhumerus -31.079 19.4023 -92.5054
rradius 30.2322
rwrist -9.01092
rhand -21.7147 21.7541
rfingers 7.12502
rthumb 4.68425 -8.17416
lclavicle -9.46215e-014 1.2921e-014
lhumerus -34.7994 -9.7649 87.0368
lradius 45.4727
lwrist -23.2273
lhand 1.7949 42.2026
lfingers 7.12502
lthumb 27.3084 70.2448
rfemur -30.4577 31.7053 10.1395
rtibia 28.9379
rfoot -53.2432 -38.7025
rtoes 52.1158
lfemur -26.5152 -46.5952 -5.62895
ltibia 20.8059
lfoot -56.8685 37.9357
ltoes 51.756
4
root 26.9418 16.1119 -30.2848 14.6811 -33.281 1.94721
lowerback 4.14193 -0.259203 -1.12471
upperback -1.65824 -0.450373 -0.955165
thorax -4.0323 -0.208833 -0.320041
lowerneck -0.930023 -1.50723 -5.8575
upperneck -5.8032 -1.80156 6.05127
head -1.57139 -0.895062 2.99818
rclavicle -3.23025e-014 2.36554e-014
rhumerus -30.9786 19.5316 -92.4559
rradius 30.268
rwrist -9.18858
rhand -21.8849 21.5797
rfingers 7.12502
rthumb 4.51991 -8.35208
lclavicle -3.23025e-014 2.36554e-014
lhumerus -34.5786 -9.71486 86.9307
lradius 45.2558
lwrist -23.1765
lhand 1.66162 42.0428
lfingers 7.12502
lthumb 27.1809 70.105
rfemur -30.5238 31.8286 9.91376
rtibia 28.6786
rfoot -53.0444 -39.118
rtoes 51.8213
lfemur -26.8559 -46.6177 -5.55625
ltibia 21.1414
lfoot -57.4886 36.8764
ltoes 52.3488
5
root 26.9411 16.0993 -30.283 14.827 -33.312 1.90871
lowerback 4.04808 -0.329048 -1.11618
upperback -1.67787 -0.540332 -0.918612
thorax -3.999 -0.253387 -0.28084
lowerneck -0.856097 -1.43685 -6.04288
upperneck -5.72928 -1.71273 6.07646
head -1.56575 -0.847921 3.04144
rclavicle -5.06404e-014 -2.127e-014
rhumerus -31.0701 19.9162 -92.533
rradius 30.3329
rwrist -9.42838
rhand -21.585 21.4472
rfingers 7.12502
rthumb 4.8095 -8.47825
lclavicle -5.06404e-014 -2.127e-014
lhumerus -34.5584 -9.49197 86.7912
lradius 44.9945
lwrist -23.1014
lhand 1.33357 41.7866
lfingers 7.12502
lthumb 26.8671 69.8975
rfemur -30.8136 32.1436 9.68658
rtibia 28.5964
rfoot -53.6524 -38.7687
rtoes 52.2308
lfemur -27.0988 -46.6914 -5.35018
ltibia 21.2235
lfoot -57.7769 36.761
ltoes 52.2872
6
root 26.941 16.0623 -30.2806 14.9243 -33.3797 1.83261
lowerback 4.03647 -0.332365 -1.08536
upperback -1.65307 -0.541864 -0.906127
thorax -3.96684 -0.254899 -0.285247
lowerneck -0.977802 -1.42373 -6.07639
upperneck -5.55496 -1.69711 5.99835
head -1.48876 -0.836443 3.01638
rclavicle -1.14401e-013 2.78299e-014
rhumerus -31.0702 20.0674 -92.5407
rradius 30.4025
rwrist -9.57604
rhand -21.3902 21.1998
rfingers 7.12502
rthumb 4.99764 -8.72122
lclavicle -1.14401e-013 2.78299e-014
lhumerus -34.4703 -9.41468 86.6709
lradius 44.8059
lwrist -23.0826
lhand 1.28517 41.9712
lfingers 7.12502
lthumb 26.8208 70.0892
rfemur -31.3037 32.8954 9.25223
rtibia 28.4858
rfoot -55.1307 -37.6589
rtoes 53.3604
lfemur -27.2409 -46.8154 -5.19312
ltibia 21.3186
lfoot -58.1118 36.6938
ltoes 52.4309
7
root 26.9385 16.1006 -30.2796 14.9862 -33.3949 1.82526
lowerback 4.07382 -0.36221 -1.11649
upperback -1.65757 -0.582941 -0.8739
thorax -3.9919 -0.273951 -0.231272
lowerneck -0.948508 -1.35253 -6.18794
upperneck -5.46664 -1.60761 5.95344
head -1.47119 -0.788939 3.02089
rclavicle -3.7123e-014 1.66979e-014
rhumerus -31.1305 20.1985 -92.5312
rradius 30.5047
rwrist -9.61436
rhand -21.4572 21.0175
rfingers 7.12502
rthumb 4.93291 -8.90505
lclavicle -3.7123e-014 1.66979e-014
lhumerus -34.4636 -9.20223 86.5854
lradius 44.6819
lwrist -23.1361
lhand 1.12122 42.1572
lfingers 7.12502
lthumb 26.6639 70.2992
rfemur -30.9065 31.9501 9.74381
rtibia 28.5406
rfoot -53.3888 -38.3678
rtoes 52.3172
lfemur -27.3288 -46.7806 -5.14211
ltibia 21.3143
lfoot -57.7673 37.5238
ltoes 51.9032
8
root 26.9394 16.1104 -30.2817 14.9934 -33.3847 1.86678
lowerback 4.13304 -0.427302 -1.19209
upperback -1.69516 -0.674304 -0.832798
thorax -4.06273 -0.316456 -0.139104
lowerneck -0.649346 -1.21334 -6.36016
upperneck -5.46424 -1.43505 6.01211
head -1.5349 -0.70368 3.0771
rclavicle 4.17448e-014 -2.90226e-014
rhumerus -31.3436 20.4995 -92.6015
rradius 30.6961
rwrist -9.73993
rhand -21.6695 20.7725
rfingers 7.12502
rthumb 4.72789 -9.15478
lclavicle 4.17448e-014 -2.90226e-014
lhumerus -34.7265 -8.92404 86.5057
lradius 44.6625
lwrist -23.258
lhand 1.07658 42.0044
lfingers 7.12502
lthumb 26.6211 70.1529
rfemur -30.8152 31.7385 9.80454
rtibia 28.5493
rfoot -53.5267 -37.9974
rtoes 52.701
lfemur -27.4043 -46.6614 -5.1801
ltibia 21.3284
lfoot -57.2686 38.3388
ltoes 51.2047
9
root 26.9401 16.1124 -30.2849 14.971 -33.3971 1.9059
lowerback 4.22225 -0.418461 -1.26344
upperback -1.65957 -0.6692 -0.867649
thorax -4.07606 -0.31254 -0.13484
lowerneck -0.649108 -1.15289 -6.36632
upperneck -5.28716 -1.355 6.09601
head -1.48279 -0.664989 3.10407
rclavicle -2.24627e-014 3.53837e-014
rhumerus -31.3494 20.4081 -92.6061
rradius 30.8272
rwrist -9.72555
rhand -21.9339 20.6549
rfingers 7.12502
rthumb 4.47263 -9.27785
lclavicle -2.24627e-014 3.53837e-014
lhumerus -34.8449 -9.01015 86.4064
lradius 44.5866
lwrist -23.3347
lhand 1.32813 42.0256
lfingers 7.12502
lthumb 26.8619 70.1373
rfemur -30.8827 31.7477 9.75693
rtibia 28.6422
rfoot -53.8034 -37.6293
rtoes 52.9777
lfemur -27.3535 -46.5852 -5.20867
ltibia 21.2039
lfoot -57.1614 38.3678
ltoes 51.1211
10
root 26.9411 16.1013 -30.2882 14.9941 -33.4273 1.86252
lowerback 4.33761 -0.392799 -1.26934
upperback -1.55872 -0.63663 -0.889291
thorax -4.03716 -0.296824 -0.155778
lowerneck -0.919534 -1.18798 -6.16871
upperneck -5.05306 -1.40138 5.87663
head -1.35667 -0.685268 2.98469
rclavicle -1.03169e-013 2.26615e-014
rhumerus -31.1702 20.2076 -92.5381
rradius 30.896
rwrist -9.53397
rhand -22.112 20.766
rfingers 7.12502
rthumb 4.30064 -9.1703
lclavicle -1.03169e-013 2.26615e-014
lhumerus -34.6052 -9.0809 86.2389
lradius 44.3235
lwrist -23.3576
lhand 1.83589 42.2534
lfingers 7.12502
lthumb 27.3476 70.2894
rfemur -30.9391 31.8335 9.7009
rtibia 28.4111
rfoot -53.3589 -38.2105
rtoes 52.593
lfemur -27.4891 -46.4956 -5.17721
ltibia 21.4667
lfoot -57.1464 38.2585
ltoes 51.1383
11
root 26.9436 16.075 -30.2908 14.9341 -33.4357 1.88619
lowerback 4.49032 -0.444524 -1.34981
upperback -1.43174 -0.709429 -0.841971
thorax -3.98992 -0.330751 -0.0553703
lowerneck -1.20012 -1.17887 -6.07059
upperneck -4.91374 -1.38942 5.56721
head -1.2641 -0.673422 2.85531
rclavicle -9.03476e-014 -2.06736e-014
rhumerus -31.0441 20.4712 -92.4693
rradius 31.0778
rwrist -9.59666
rhand -22.0837 20.8322
rfingers 7.12502
rthumb 4.32793 -9.10355
lclavicle -9.03476e-014 -2.06736e-014
lhumerus -34.2751 -8.78934 86.0407
lradius 43.992
lwrist -23.5568
lhand 2.22324 42.2194
lfingers 7.12502
lthumb 27.7181 70.1964
rfemur -31.1164 32.1863 9.45624
rtibia 28.1881
rfoot -52.9449 -39.3995
rtoes 52.0792
lfemur -27.4678 -46.3228 -5.33079
ltibia 21.6991
lfoot -57.2326 37.4995
ltoes 51.6007
12
root 26.9446 16.0722 -30.2911 14.8959 -33.4343 1.91576
lowerback 4.57469 -0.500135 -1.41127
upperback -1.34189 -0.785329 -0.786389
thorax -3.94228 -0.36666 0.0427797
lowerneck -1.24724 -1.07848 -6.18714
upperneck -4.93375 -1.25475 5.49311
head -1.27085 -0.60234 2.85146
rclavicle -1.15792e-014 -2.06736e-014
rhumerus -30.9962 20.805 -92.4101
rradius 31.2707
rwrist -9.73764
rhand -22.1033 21.0565
rfingers 7.12502
rthumb 4.30903 -8.87965
lclavicle -1.15792e-014 -2.06736e-014
lhumerus -34.0595 -8.47904 85.9175
lradius 43.6259
lwrist -23.8001
lhand 1.80453 42.089
lfingers 7.12502
lthumb 27.3176 70.1298
rfemur -31.0274 32.1043 9.46167
rtibia 28.0535
rfoot -53.1502 -38.9531
rtoes 52.5011
lfemur -27.4369 -46.2419 -5.4324
ltibia 21.8469
lfoot -57.4465 36.7546
ltoes 52.0392
13
root 26.9448 16.0954 -30.2915 15.0079 -33.4261 1.7907
lowerback 4.65705 -0.465429 -1.29688
upperback -1.3169 -0.732649 -0.774262
thorax -3.96465 -0.342978 -0.0123468
lowerneck -1.10215 -1.06244 -6.11139
upperneck -5.10775 -1.23917 5.43284
head -1.35373 -0.596435 2.82057
rclavicle -3.37934e-014 1.15295e-014
rhumerus -31.0104 20.7333 -92.3544
rradius 31.4466
rwrist -9.71721
rhand -22.0878 21.2487
rfingers 7.12502
rthumb 4.32403 -8.68715
lclavicle -3.37934e-014 1.15295e-014
lhumerus -33.9639 -8.4946 85.8359
lradius 43.3676
lwrist -23.8317
lhand 1.29039 42.02
lfingers 7.12502
lthumb 26.8258 70.1372
rfemur -30.7396 31.4141 9.89537
rtibia 28.0654
rfoot -53.3271 -37.5225
rtoes 53.1526
lfemur -27.4875 -46.2003 -5.27286
ltibia 21.8499
lfoot -57.4277 36.7652
ltoes 52.084
14
root 26.947 16.1066 -30.2941 15.1419 -33.3737 1.54903
lowerback 4.86338 -0.392285 -1.06053
upperback -1.28922 -0.622794 -0.762249
thorax -4.05577 -0.293534 -0.139817
lowerneck -1.10198 -1.1462 -5.96683
upperneck -5.11214 -1.35294 5.3814
head -1.34834 -0.655313 2.77642
rclavicle -2.69353e-014 -9.14409e-015
rhumerus -31.0624 20.4623 -92.2555
rradius 31.7032
rwrist -9.69435
rhand -21.9977 21.2946
rfingers 7.12502
rthumb 4.41096 -8.63943
lclavicle -2.69353e-014 -9.14409e-015
lhumerus -33.8974 -8.73469 85.8061
lradius 43.1869
lwrist -23.7891
lhand 1.66763 42.5381
lfingers 7.12502
lthumb 27.1867 70.5995
rfemur -30.6586 30.8745 10.3521
rtibia 28.2764
rfoot -53.1363 -36.7882
rtoes 53.3527
lfemur -27.3904 -46.0984 -5.04729
ltibia 21.615
lfoot -57.2034 36.9116
ltoes 51.9762
